<?xml version="1.0" standalone="no"?>
<!DOCTYPE svg PUBLIC "-//W3C//DTD SVG 20010904//EN"
 "http://www.w3.org/TR/2001/REC-SVG-20010904/DTD/svg10.dtd">
<svg version="1.0" xmlns="http://www.w3.org/2000/svg"
 width="50.000000pt" height="27.000000pt" viewBox="0 0 50.000000 27.000000"
 preserveAspectRatio="xMidYMid meet">

<g transform="translate(0.000000,27.000000) scale(0.100000,-0.100000)"
fill="#000000" stroke="none">
<path d="M47 248 c6 -7 23 -46 38 -86 l29 -74 19 37 c10 20 16 39 14 42 -3 2
-8 -5 -12 -16 -11 -34 -20 -25 -44 44 -15 41 -29 65 -38 65 -11 0 -13 -4 -6
-12z"/>
<path d="M228 244 c27 -19 29 -50 3 -66 -19 -11 -18 -13 11 -50 16 -21 34 -38
40 -38 5 0 -4 18 -21 39 -19 23 -27 42 -21 46 5 3 15 15 20 25 8 15 6 24 -10
40 -11 11 -26 20 -32 20 -7 0 -2 -7 10 -16z"/>
<path d="M322 252 c15 -36 94 -162 101 -162 11 0 11 0 -42 93 -25 42 -49 77
-54 77 -5 0 -7 -3 -5 -8z"/>
<path d="M403 235 c-6 -14 -7 -23 -2 -19 13 8 31 44 22 44 -4 0 -13 -11 -20
-25z"/>
<path d="M326 115 c-13 -20 -14 -25 -2 -25 7 0 16 10 19 22 9 31 2 33 -17 3z"/>
</g>
</svg>
